<svg version="1.1" id="Layer_1" xmlns="http://www.w3.org/2000/svg" xmlns:xlink="http://www.w3.org/1999/xlink" x="0px" y="0px"
	 width="100%" viewBox="0 0 1024 976" enable-background="new 0 0 1024 976" xml:space="preserve">
<path fill="#2065ceff" opacity="1.000000" stroke="none" 
	d="
M668.602112,678.157654 
	C668.664001,681.567139 666.495178,680.267212 665.152344,680.023499 
	C637.380066,674.981506 612.044617,663.894470 588.384460,648.766907 
	C584.288635,646.148254 581.147156,642.378052 578.111877,638.608459 
	C555.677673,610.746704 527.818665,590.220459 494.599060,577.022766 
	C476.540436,569.848328 457.547913,566.393311 438.461334,563.309814 
	C428.806671,561.750122 419.096924,560.652161 409.882507,556.695435 
	C384.165222,545.652161 379.706482,516.008789 394.698853,495.485413 
	C403.404541,483.568024 414.749298,474.122467 424.953705,463.616302 
	C433.540100,454.776031 442.761078,446.548218 451.262848,437.631378 
	C455.371887,433.321716 459.570374,430.919525 465.628174,431.589417 
	C469.697083,432.039368 473.778229,431.251221 478.401428,430.110260 
	C475.735077,427.473694 472.863800,426.631958 470.089661,425.732086 
	C457.840942,421.759094 445.202240,419.711731 432.429077,418.478027 
	C428.547638,418.103119 424.864380,419.523407 421.273346,420.835510 
	C406.886230,426.092407 392.493317,431.337097 378.173218,436.772522 
	C370.539612,439.670013 363.203888,443.204010 356.274811,447.625519 
	C352.756409,449.870605 351.153656,452.646912 351.365601,456.678925 
	C351.633453,461.774139 350.724396,466.597198 348.257233,471.134491 
	C341.581299,483.412109 325.186340,487.949036 313.205780,480.772797 
	C303.795807,475.136292 301.548279,465.050385 307.636566,455.884369 
	C311.175934,450.555725 315.606354,445.995178 320.490479,441.976685 
	C341.114716,425.007935 362.708923,409.509277 386.678558,397.429352 
	C409.301605,386.028107 432.989441,382.094849 458.246399,383.288696 
	C483.817047,384.497375 508.860107,388.620697 533.944946,393.032440 
	C548.686646,395.625122 556.421387,387.741364 553.706665,373.094177 
	C552.767883,368.029297 551.583374,363.090759 551.983765,357.795593 
	C553.912842,332.280151 580.794495,320.797882 599.918579,326.021484 
	C622.073669,332.072998 633.049133,348.359833 629.324463,371.015900 
	C628.462708,376.258240 630.628723,380.822144 632.007141,385.580994 
	C632.562195,387.497101 633.431458,389.325439 633.938721,391.251404 
	C634.801880,394.528717 633.971680,397.109467 630.138000,397.211578 
	C626.451538,397.309723 624.928284,399.346771 623.806580,402.457062 
	C622.225647,406.840668 620.374146,411.129395 618.559753,415.425507 
	C615.807068,421.943207 612.361267,423.659210 605.463684,421.871429 
	C601.085510,420.736694 597.014343,418.805237 593.082886,416.595581 
	C589.519348,414.592560 586.331299,414.949768 582.809204,417.153534 
	C575.349731,421.820923 571.287903,428.261414 570.211792,437.020172 
	C568.538208,450.641846 561.820679,461.234772 550.556274,469.261993 
	C538.524048,477.836334 524.821289,483.256104 512.055359,490.433319 
	C501.670166,496.272125 492.995850,503.749115 485.652313,512.974854 
	C482.412323,517.045227 482.796448,518.232727 487.947235,519.625732 
	C513.358398,526.498047 537.482178,536.230957 559.283569,551.278076 
	C578.747070,564.711548 595.726868,580.805542 611.261536,598.567627 
	C626.861450,616.404419 641.299866,635.122070 654.523987,654.760071 
	C659.538696,662.207153 663.847534,670.129639 668.602112,678.157654 
z"/>
<path fill="#0c3a7e" opacity="1.000000" stroke="none" 
	d="
M662.513672,453.533447 
	C665.724731,437.106567 668.772644,421.078857 671.997742,405.086884 
	C678.079224,374.931824 684.276062,344.800018 690.391907,314.651855 
	C691.496887,309.204681 689.786560,307.574524 684.175720,308.723541 
	C666.409058,312.361847 648.632935,315.959595 630.910522,319.803741 
	C627.210388,320.606293 624.312927,320.117676 621.060120,318.133698 
	C591.191345,299.916351 556.151428,311.743774 542.916138,335.996399 
	C541.357483,338.852509 538.999634,339.795898 536.090820,340.309845 
	C527.083313,341.901276 518.078125,343.512360 509.098877,345.254150 
	C503.935516,346.255707 503.349152,347.835846 506.959473,351.667023 
	C513.128418,358.213379 519.545654,364.525543 525.849243,370.945221 
	C527.221802,372.343079 528.554871,373.779663 529.852539,375.142120 
	C528.882019,376.927887 527.629761,376.336639 526.597595,376.092346 
	C501.701752,370.199341 476.413361,367.712891 450.882660,367.353790 
	C448.466522,367.319794 446.403809,366.973267 444.571503,365.088531 
	C429.356781,349.438599 414.059174,333.869263 398.808167,318.254486 
	C397.910126,317.335022 396.703674,316.543640 396.755890,313.818268 
	C517.243591,289.077454 637.973450,264.286957 759.946472,239.241180 
	C735.586243,361.702911 711.452209,483.027740 687.310364,604.391418 
	C683.229858,603.963806 681.615906,601.420776 679.679443,599.495850 
	C653.446472,573.418762 627.270935,547.283936 601.054504,521.190247 
	C595.060974,515.224731 594.686829,515.291321 588.852905,521.384521 
	C583.901672,526.555725 578.877380,531.657471 573.955688,536.856567 
	C572.153564,538.760254 570.432617,539.744080 567.908936,538.022095 
	C554.660461,528.982544 540.533447,521.515259 526.016052,514.752075 
	C525.306335,514.421448 524.721619,513.822510 523.514282,512.932312 
	C531.161560,503.316803 539.417297,494.768494 549.547180,488.233917 
	C560.260315,481.323120 570.568359,474.072449 577.164124,462.736847 
	C581.659302,455.011322 584.486511,446.717346 585.706482,437.875122 
	C585.910767,436.393829 585.916748,434.885498 587.080811,433.745392 
	C589.526978,433.490448 590.751587,435.270752 592.097900,436.625366 
	C607.717590,452.341858 623.282532,468.112762 638.896179,483.835327 
	C642.064209,487.025452 645.330505,490.121948 648.631531,493.175079 
	C652.206055,496.481232 653.759766,496.058136 654.825745,491.104675 
	C656.925232,481.348633 658.736389,471.530701 660.696533,461.744354 
	C661.219238,459.134735 661.849609,456.546661 662.513672,453.533447 
z"/>
<path fill="#0c3a7e" opacity="1.000000" stroke="none" 
	d="
M614.374023,734.754883 
	C575.573608,720.453735 541.205688,699.554199 510.397095,672.592773 
	C503.103790,666.210205 496.571716,659.095642 489.436981,652.586121 
	C486.949188,650.316284 486.904938,648.469238 489.381378,645.975708 
	C498.536224,636.757874 507.629913,627.471680 516.483154,617.965881 
	C519.857117,614.343323 521.957642,615.294617 524.974670,618.369934 
	C546.825256,640.642395 571.278748,659.506226 599.011780,673.951050 
	C621.179382,685.497131 644.473083,693.893860 669.288330,697.332520 
	C695.552856,700.971985 719.460754,695.339539 738.808472,676.328125 
	C750.902832,664.443970 756.438843,649.829163 752.798157,632.629089 
	C750.852539,623.437073 745.820007,616.183960 738.467773,610.438721 
	C737.212524,609.457886 735.489990,608.805176 735.270569,606.521301 
	C738.476929,603.787231 742.606934,604.002014 746.431335,603.819153 
	C772.381104,602.577759 794.349731,623.382385 795.346680,649.593506 
	C795.931030,664.956360 792.437561,678.980164 783.354065,691.492798 
	C783.063477,691.893066 782.794434,692.327881 782.619507,692.786316 
	C782.511047,693.070435 782.599426,693.429688 782.606079,693.755188 
	C793.847290,691.323792 811.848572,674.328369 818.692261,653.988098 
	C827.325378,628.329285 822.437988,604.541443 803.112305,585.841125 
	C774.962891,558.602356 744.340820,564.424438 713.924438,583.183044 
	C712.484558,580.674072 713.936035,578.993896 714.709045,577.345154 
	C725.692017,553.919617 743.940796,539.684753 769.399048,535.280518 
	C807.804199,528.636414 839.199768,540.698669 862.082520,572.414001 
	C875.718872,591.313904 880.344482,613.211304 879.459961,636.319092 
	C877.744019,681.145874 854.059448,711.694336 815.885742,732.053284 
	C788.377563,746.724060 758.519592,752.777954 727.389771,753.471375 
	C688.626404,754.334839 651.155396,747.939087 614.374023,734.754883 
z"/>
<path fill="#0c3a7e" opacity="1.000000" stroke="none" 
	d="
M431.115540,606.116699 
	C437.762177,599.075500 444.221649,592.342407 450.527771,585.468567 
	C452.533264,583.282532 454.582062,582.423706 457.572998,583.010193 
	C473.520172,586.137207 488.730103,591.480713 503.476868,598.180176 
	C509.534790,600.932190 509.646210,601.976074 505.136841,606.536682 
	C480.652313,631.299194 456.703918,656.624939 431.515869,680.650574 
	C396.990448,713.582764 357.533966,738.519592 310.107147,748.562134 
	C278.953949,755.158752 247.453384,757.373108 216.901428,746.500854 
	C171.751648,730.433838 145.059509,698.551147 139.639969,650.281311 
	C136.196625,619.612854 144.174850,591.705261 162.448059,567.022583 
	C179.281891,544.284241 202.596527,531.428894 229.981079,525.767395 
	C266.587616,518.199402 300.738556,525.953857 333.205048,543.146423 
	C345.032135,549.409424 343.424316,548.032349 336.363342,558.269470 
	C330.173279,567.243958 322.169006,574.591919 314.711243,582.433289 
	C312.174469,585.100525 309.839569,585.432068 306.362610,583.689392 
	C290.816406,575.897034 274.286652,571.569397 256.854675,571.405396 
	C217.879303,571.038513 190.055115,598.929626 189.898148,637.971863 
	C189.750549,674.682983 216.472290,700.953491 251.361099,704.721008 
	C287.827118,708.658875 320.342651,697.221619 350.805969,678.380737 
	C372.528473,664.945862 390.702057,647.317139 408.412262,629.160339 
	C415.859070,621.525818 423.381165,613.964783 431.115540,606.116699 
z"/>
<path fill="#0c3a7e" opacity="1.000000" stroke="none" 
	d="
M308.194397,660.308716 
	C292.767365,666.198853 277.279114,669.664185 261.049072,669.383057 
	C241.400818,669.042664 226.873474,656.683838 223.504059,637.309875 
	C222.521576,631.660706 223.116669,630.700378 228.852737,630.831909 
	C245.676529,631.217896 262.157867,629.016296 277.966431,623.382263 
	C304.561737,613.904114 325.980438,597.119812 343.661499,575.301697 
	C352.811920,564.010193 361.115723,552.172119 367.984161,539.346313 
	C368.671692,538.062439 369.586914,536.900574 370.376404,535.712341 
	C372.857941,536.482300 372.796204,538.578979 373.455566,540.180542 
	C379.945221,555.943542 390.697723,567.308777 407.140900,572.750793 
	C410.477997,573.855225 412.897522,574.940735 409.679169,578.842590 
	C389.478821,603.333130 368.041077,626.484436 341.098938,643.884888 
	C330.829102,650.517700 320.022980,655.981812 308.194397,660.308716 
z"/>
<path fill="#0c3a7e" opacity="1.000000" stroke="none" 
	d="
M572.080322,740.852173 
	C581.470398,745.464722 591.032349,748.704834 600.483093,752.182800 
	C599.792786,753.895813 598.736145,753.907776 597.750610,753.892517 
	C572.157349,753.497498 546.432251,754.841003 521.183777,749.255859 
	C489.349274,742.214050 462.036407,726.610962 438.144653,704.665649 
	C435.085693,701.855835 435.175995,699.767517 438.132050,696.891602 
	C447.556183,687.722961 456.884308,678.448181 466.002625,668.976685 
	C469.014893,665.847778 470.738708,665.788940 473.917175,668.991943 
	C502.015381,697.307068 533.205322,721.513672 569.014160,739.451050 
	C569.906799,739.898193 570.828125,740.288330 572.080322,740.852173 
z"/>
</svg>